<svg xmlns="http://www.w3.org/2000/svg" viewBox="0 0 263.85 72.62"><defs><style>.cls-1,.cls-2{fill:#ffffff;}.cls-1{fill-rule:evenodd;}</style></defs><g id="Layer_2" data-name="Layer 2"><g id="Layer_1-2" data-name="Layer 1"><g id="layer1"><g id="g122"><g id="g124"><g id="g130"><g id="g132"><path id="path138" class="cls-1" d="M133.42,55.11c4.3-.34,11.87,2,11.56,7.68-.32,5.91-5.47,8.5-15,9-7.33.4-13.24-2.19-13.38-9.4-.13-6.09,4-7.37,4-7.37s9,.36,12.79.06m-7-23c0,2.44,1.53,4.81,4,4.82s4-2.38,4-4.82V21.87c0-2.79-.73-5.92-4-6s-4,3.16-4,6ZM140.74,4.81a5.76,5.76,0,1,1,0,11.51,6,6,0,0,1-6.07-5.76c0-2.67,1.08-3,1.08-3-2.28.12-4.06,3.61-1.84,7.9,0,0,13.37,2.21,13.29,11.23-.08,8.43-10.9,10.82-16.64,11a28.75,28.75,0,0,1-10.14-2s-3.53.45-3.19,2.86c.61,4.48,7.66,2.56,13.33,2.71,6,.16,9.77-.52,16.34,3.12,2.78,1.54,5.49,5.47,5.43,10.88-.1,11.64-9.9,16.67-21.77,17.31-9.15.5-19.8-3-19.88-10.08s9.43-7.94,9.43-7.8-8.48-1.76-8.79-9.82c-.28-6.84,8.29-9.63,8.29-9.63S113,31.37,113,26.66c0-5.78,6.08-10.3,12.78-11.24a35.54,35.54,0,0,1,7.39-.16c-2.83-6.37,2-10.46,7.57-10.45"/></g></g><path id="path140" class="cls-2" d="M92.21,17.64H87.33V17h20.22V55.79h4.88v.66H87.33v-.66h4.88Z"/><path id="path142" class="cls-2" d="M91.54,7.55a8,8,0,0,1,16,0,8,8,0,0,1-16,0"/><path id="path144" class="cls-2" d="M224,17.64h-5.58V51.19c0,1.31.75,3.56,2.44,3.57s2.44-2.26,2.44-3.57v-9h.7v8.71c0,4.29-5.41,8-10.67,7.13-8.53-1.46-10.95-7.6-10.95-11.54V17.64H194V51.19c0,1.31.75,3.57,2.43,3.57s2.45-2.26,2.45-3.57v-9h.7v8.71c0,4.29-5.41,8-10.67,7.13C180.39,56.61,178,50.47,178,46.53V17.64h-4.49V17H178L194,3.83V17h8.36l16-13.15V17H224v.66Z"/><path id="path146" class="cls-2" d="M155,17.64h-4.88V17H170.3V55.79h4.88v.66H152.87v-.66H155Z"/><path id="path148" class="cls-2" d="M154.29,7.55a8,8,0,0,1,16,0,8,8,0,0,1-16,0"/><path id="path150" class="cls-1" d="M.7,2.51V1.85h26C33,1.85,49.36,4.3,49.55,15.2S34.29,27.5,34.29,27.5s19.58,2.67,19.43,15.44C53.6,53.43,40.31,56.45,36.2,56.45H0v-.66H6.45V2.51Zm22.49,0h3.4c2.91,0,7.75,1.48,7.87,12.54.12,11.51-4.86,11.8-7,11.8H23.19Zm0,25h4.87c3.33,0,8.07,2.66,8.43,14.76.3,10.27-4.41,13.52-7.38,13.52H23.19Z"/><path id="path152" class="cls-2" d="M73.6,23.89v31.9h4.88v.66H53.38v-.66h4.88V17.64H53.38V17H73.6v4.15c.54-2.5,4-4.8,8.4-4.8a7.17,7.17,0,0,1,7.43,7.56A7.26,7.26,0,0,1,82,30.8a7.16,7.16,0,0,1-7.4-6.91,7.19,7.19,0,0,1,4.29-6s-5.33.64-5.33,6"/><path id="path154" class="cls-1" d="M241.12,25.71v9.81h8.37V25.71c0-3.9-.29-9.08-4.18-9.07s-4.19,5.17-4.19,9.07m21.53,16.4C262.48,48.73,257,56,251,55.89c-4.29-.07-9.84-2-9.84-10.55V36.4h22.71l0-4.58c0-7.2-5.66-15.84-17.86-15.84a21.57,21.57,0,0,0-21.71,21.11c-.17,11.57,9,20.13,21.65,20.43s17.46-9.21,17.58-15.41Z"/></g></g></g></g></g></svg>